<?xml version="1.0" standalone="no"?><!DOCTYPE svg PUBLIC "-//W3C//DTD SVG 1.1//EN" "http://www.w3.org/Graphics/SVG/1.1/DTD/svg11.dtd"><svg t="1768637561702" class="icon" viewBox="0 0 1024 1024" version="1.1" xmlns="http://www.w3.org/2000/svg" p-id="12987" width="32" height="32" xmlns:xlink="http://www.w3.org/1999/xlink"><path d="M263.252771 251.588661C254.18202 253.060405 240.20474 258.700662 232.114437 264.216485 223.286117 269.979029 209.43327 284.690036 204.406598 293.271635 202.323415 296.950996 195.947286 313.133747 190.186866 329.314353 169.169671 388.959258 148.205574 448.622828 127.294491 508.305064 119.571051 530.49708 105.226908 571.688757 95.418118 599.641172 58.517262 705.319279 61.583038 695.14369 61.458626 711.204111 61.458626 722.973774 61.949859 726.65099 64.279806 733.271629 70.898364 752.028925 85.856071 765.759484 105.96278 771.766603 115.647115 774.587804 172.776968 774.587804 183.810759 771.766603 197.296786 768.333964 206.369639 762.940428 217.034422 752.273543 229.170949 740.259218 232.728022 733.393981 244.49554 699.55888 254.671172 670.381442 269.628899 627.715832 294.884547 556.11959 303.801966 530.663992 312.710395 505.20524 321.609793 479.743355 326.02288 466.870956 330.069104 456.204114 330.435968 456.204114 330.804977 456.204114 337.670256 481.212954 345.515983 511.617561 401.665475 727.755871 400.073502 721.993327 404.853453 731.18851 411.227436 743.447411 424.835707 756.811021 437.830394 763.554013 457.568073 773.851932 445.064683 773.11606 608.733012 773.11606 770.680602 773.11606 760.138107 773.605211 778.528475 764.534461 794.097642 756.933309 806.725465 744.796782 815.920649 728.980894 817.759257 725.548297 824.869112 707.157951 831.734391 687.911504 838.477383 668.662977 850.61391 634.212146 858.828646 611.288591 867.043382 588.362805 882.243541 545.330375 892.665893 515.663785 903.0861 485.992905 915.713924 450.441484 920.740596 436.588637 952.859377 347.337857 960.093665 325.883858 961.809985 314.972355 966.345361 284.567748 950.040322 260.050118 920.127011 252.079958 910.195955 249.38319 834.553447 249.505478 823.27508 252.202245 800.840633 257.473493 780.611658 273.289381 769.455579 294.376516 767.494683 298.053731 759.402235 319.018579 751.556508 340.961729 733.043788 392.698089 687.070078 519.830152 676.527583 548.271718 674.688933 553.420677 672.603711 557.711413 671.990063 557.83591 671.378624 557.958198 669.540016 552.931526 667.945984 546.679831 663.899803 530.988376 613.14389 333.851873 608.608515 316.564241 603.581778 297.073284 598.310595 287.386803 585.927347 275.127988 577.714756 266.913252 573.913108 264.094197 564.351104 259.558821 544.491094 249.872341 550.987365 250.24135 401.787677 250.363638 329.088657 250.485925 266.809844 250.977222 263.252771 251.588661Z" fill="#000000" p-id="12988"></path></svg>